<svg xmlns="http://www.w3.org/2000/svg" width="40" height="40" viewBox="0 0 40 40" fill="none">
  <!-- 左侧书页 -->
  <path d="M20 10C18 8 14 8 10 9v20c4-1 8-1 10 1V10z"
        stroke="#d97706" stroke-width="2" stroke-linecap="round" stroke-linejoin="round"/>
  <!-- 右侧书页 -->
  <path d="M20 10c2-2 6-2 10-1v20c-4-1-8-1-10 1V10z"
        stroke="#d97706" stroke-width="2" stroke-linecap="round" stroke-linejoin="round"/>
  <!-- 书脊中缝 -->
  <line x1="20" y1="10" x2="20" y2="30"
        stroke="#d97706" stroke-width="2" stroke-linecap="round"/>
  <!-- 左页横线 -->
  <line x1="13" y1="16" x2="18" y2="16"
        stroke="#d97706" stroke-width="1.5" stroke-linecap="round"/>
  <line x1="13" y1="20" x2="18" y2="20"
        stroke="#d97706" stroke-width="1.5" stroke-linecap="round"/>
  <line x1="13" y1="24" x2="18" y2="24"
        stroke="#d97706" stroke-width="1.5" stroke-linecap="round"/>
  <!-- 右页横线 -->
  <line x1="22" y1="16" x2="27" y2="16"
        stroke="#d97706" stroke-width="1.5" stroke-linecap="round"/>
  <line x1="22" y1="20" x2="27" y2="20"
        stroke="#d97706" stroke-width="1.5" stroke-linecap="round"/>
  <line x1="22" y1="24" x2="27" y2="24"
        stroke="#d97706" stroke-width="1.5" stroke-linecap="round"/>
</svg>
